%TF.GenerationSoftware,KiCad,Pcbnew,5.1.7-a382d34a8~87~ubuntu18.04.1*%
%TF.CreationDate,2020-10-20T20:58:06+01:00*%
%TF.ProjectId,transistor-matchers,7472616e-7369-4737-946f-722d6d617463,rev?*%
%TF.SameCoordinates,Original*%
%TF.FileFunction,Legend,Bot*%
%TF.FilePolarity,Positive*%
%FSLAX46Y46*%
G04 Gerber Fmt 4.6, Leading zero omitted, Abs format (unit mm)*
G04 Created by KiCad (PCBNEW 5.1.7-a382d34a8~87~ubuntu18.04.1) date 2020-10-20 20:58:06*
%MOMM*%
%LPD*%
G01*
G04 APERTURE LIST*
%ADD10C,0.120000*%
%ADD11C,0.150000*%
G04 APERTURE END LIST*
D10*
%TO.C,R8*%
X154725000Y-97120000D02*
X155055000Y-97120000D01*
X154725000Y-103660000D02*
X154725000Y-97120000D01*
X155055000Y-103660000D02*
X154725000Y-103660000D01*
X157465000Y-97120000D02*
X157135000Y-97120000D01*
X157465000Y-103660000D02*
X157465000Y-97120000D01*
X157135000Y-103660000D02*
X157465000Y-103660000D01*
%TO.C,R7*%
X170125000Y-96920000D02*
X170455000Y-96920000D01*
X170125000Y-103460000D02*
X170125000Y-96920000D01*
X170455000Y-103460000D02*
X170125000Y-103460000D01*
X172865000Y-96920000D02*
X172535000Y-96920000D01*
X172865000Y-103460000D02*
X172865000Y-96920000D01*
X172535000Y-103460000D02*
X172865000Y-103460000D01*
%TO.C,D4*%
X157021371Y-92800000D02*
X157135000Y-92800000D01*
X157021371Y-92800000D02*
G75*
G03*
X157021371Y-92800000I-1326371J0D01*
G01*
%TO.C,D3*%
X170308629Y-92800000D02*
X170195000Y-92800000D01*
X172961371Y-92800000D02*
G75*
G03*
X172961371Y-92800000I-1326371J0D01*
G01*
%TO.C,C4*%
X163365000Y-105570000D02*
X163365000Y-102830000D01*
X158125000Y-105570000D02*
X158125000Y-102830000D01*
X158125000Y-102830000D02*
X163365000Y-102830000D01*
X158125000Y-105570000D02*
X163365000Y-105570000D01*
%TO.C,C3*%
X163499775Y-96075000D02*
X163499775Y-96575000D01*
X163749775Y-96325000D02*
X163249775Y-96325000D01*
X158344000Y-97516000D02*
X158344000Y-98084000D01*
X158384000Y-97282000D02*
X158384000Y-98318000D01*
X158424000Y-97123000D02*
X158424000Y-98477000D01*
X158464000Y-96995000D02*
X158464000Y-98605000D01*
X158504000Y-96885000D02*
X158504000Y-98715000D01*
X158544000Y-96789000D02*
X158544000Y-98811000D01*
X158584000Y-96702000D02*
X158584000Y-98898000D01*
X158624000Y-96622000D02*
X158624000Y-98978000D01*
X158664000Y-98840000D02*
X158664000Y-99051000D01*
X158664000Y-96549000D02*
X158664000Y-96760000D01*
X158704000Y-98840000D02*
X158704000Y-99119000D01*
X158704000Y-96481000D02*
X158704000Y-96760000D01*
X158744000Y-98840000D02*
X158744000Y-99183000D01*
X158744000Y-96417000D02*
X158744000Y-96760000D01*
X158784000Y-98840000D02*
X158784000Y-99243000D01*
X158784000Y-96357000D02*
X158784000Y-96760000D01*
X158824000Y-98840000D02*
X158824000Y-99300000D01*
X158824000Y-96300000D02*
X158824000Y-96760000D01*
X158864000Y-98840000D02*
X158864000Y-99354000D01*
X158864000Y-96246000D02*
X158864000Y-96760000D01*
X158904000Y-98840000D02*
X158904000Y-99405000D01*
X158904000Y-96195000D02*
X158904000Y-96760000D01*
X158944000Y-98840000D02*
X158944000Y-99453000D01*
X158944000Y-96147000D02*
X158944000Y-96760000D01*
X158984000Y-98840000D02*
X158984000Y-99499000D01*
X158984000Y-96101000D02*
X158984000Y-96760000D01*
X159024000Y-98840000D02*
X159024000Y-99543000D01*
X159024000Y-96057000D02*
X159024000Y-96760000D01*
X159064000Y-98840000D02*
X159064000Y-99585000D01*
X159064000Y-96015000D02*
X159064000Y-96760000D01*
X159104000Y-98840000D02*
X159104000Y-99626000D01*
X159104000Y-95974000D02*
X159104000Y-96760000D01*
X159144000Y-98840000D02*
X159144000Y-99664000D01*
X159144000Y-95936000D02*
X159144000Y-96760000D01*
X159184000Y-98840000D02*
X159184000Y-99701000D01*
X159184000Y-95899000D02*
X159184000Y-96760000D01*
X159224000Y-98840000D02*
X159224000Y-99737000D01*
X159224000Y-95863000D02*
X159224000Y-96760000D01*
X159264000Y-98840000D02*
X159264000Y-99771000D01*
X159264000Y-95829000D02*
X159264000Y-96760000D01*
X159304000Y-98840000D02*
X159304000Y-99804000D01*
X159304000Y-95796000D02*
X159304000Y-96760000D01*
X159344000Y-98840000D02*
X159344000Y-99835000D01*
X159344000Y-95765000D02*
X159344000Y-96760000D01*
X159384000Y-98840000D02*
X159384000Y-99865000D01*
X159384000Y-95735000D02*
X159384000Y-96760000D01*
X159424000Y-98840000D02*
X159424000Y-99895000D01*
X159424000Y-95705000D02*
X159424000Y-96760000D01*
X159464000Y-98840000D02*
X159464000Y-99922000D01*
X159464000Y-95678000D02*
X159464000Y-96760000D01*
X159504000Y-98840000D02*
X159504000Y-99949000D01*
X159504000Y-95651000D02*
X159504000Y-96760000D01*
X159544000Y-98840000D02*
X159544000Y-99975000D01*
X159544000Y-95625000D02*
X159544000Y-96760000D01*
X159584000Y-98840000D02*
X159584000Y-100000000D01*
X159584000Y-95600000D02*
X159584000Y-96760000D01*
X159624000Y-98840000D02*
X159624000Y-100024000D01*
X159624000Y-95576000D02*
X159624000Y-96760000D01*
X159664000Y-98840000D02*
X159664000Y-100047000D01*
X159664000Y-95553000D02*
X159664000Y-96760000D01*
X159704000Y-98840000D02*
X159704000Y-100068000D01*
X159704000Y-95532000D02*
X159704000Y-96760000D01*
X159744000Y-98840000D02*
X159744000Y-100090000D01*
X159744000Y-95510000D02*
X159744000Y-96760000D01*
X159784000Y-98840000D02*
X159784000Y-100110000D01*
X159784000Y-95490000D02*
X159784000Y-96760000D01*
X159824000Y-98840000D02*
X159824000Y-100129000D01*
X159824000Y-95471000D02*
X159824000Y-96760000D01*
X159864000Y-98840000D02*
X159864000Y-100148000D01*
X159864000Y-95452000D02*
X159864000Y-96760000D01*
X159904000Y-98840000D02*
X159904000Y-100165000D01*
X159904000Y-95435000D02*
X159904000Y-96760000D01*
X159944000Y-98840000D02*
X159944000Y-100182000D01*
X159944000Y-95418000D02*
X159944000Y-96760000D01*
X159984000Y-98840000D02*
X159984000Y-100198000D01*
X159984000Y-95402000D02*
X159984000Y-96760000D01*
X160024000Y-98840000D02*
X160024000Y-100214000D01*
X160024000Y-95386000D02*
X160024000Y-96760000D01*
X160064000Y-98840000D02*
X160064000Y-100228000D01*
X160064000Y-95372000D02*
X160064000Y-96760000D01*
X160104000Y-98840000D02*
X160104000Y-100242000D01*
X160104000Y-95358000D02*
X160104000Y-96760000D01*
X160144000Y-98840000D02*
X160144000Y-100255000D01*
X160144000Y-95345000D02*
X160144000Y-96760000D01*
X160184000Y-98840000D02*
X160184000Y-100268000D01*
X160184000Y-95332000D02*
X160184000Y-96760000D01*
X160224000Y-98840000D02*
X160224000Y-100280000D01*
X160224000Y-95320000D02*
X160224000Y-96760000D01*
X160265000Y-98840000D02*
X160265000Y-100291000D01*
X160265000Y-95309000D02*
X160265000Y-96760000D01*
X160305000Y-98840000D02*
X160305000Y-100301000D01*
X160305000Y-95299000D02*
X160305000Y-96760000D01*
X160345000Y-98840000D02*
X160345000Y-100311000D01*
X160345000Y-95289000D02*
X160345000Y-96760000D01*
X160385000Y-98840000D02*
X160385000Y-100320000D01*
X160385000Y-95280000D02*
X160385000Y-96760000D01*
X160425000Y-98840000D02*
X160425000Y-100328000D01*
X160425000Y-95272000D02*
X160425000Y-96760000D01*
X160465000Y-98840000D02*
X160465000Y-100336000D01*
X160465000Y-95264000D02*
X160465000Y-96760000D01*
X160505000Y-98840000D02*
X160505000Y-100343000D01*
X160505000Y-95257000D02*
X160505000Y-96760000D01*
X160545000Y-98840000D02*
X160545000Y-100350000D01*
X160545000Y-95250000D02*
X160545000Y-96760000D01*
X160585000Y-98840000D02*
X160585000Y-100356000D01*
X160585000Y-95244000D02*
X160585000Y-96760000D01*
X160625000Y-98840000D02*
X160625000Y-100361000D01*
X160625000Y-95239000D02*
X160625000Y-96760000D01*
X160665000Y-98840000D02*
X160665000Y-100365000D01*
X160665000Y-95235000D02*
X160665000Y-96760000D01*
X160705000Y-98840000D02*
X160705000Y-100369000D01*
X160705000Y-95231000D02*
X160705000Y-96760000D01*
X160745000Y-95227000D02*
X160745000Y-100373000D01*
X160785000Y-95224000D02*
X160785000Y-100376000D01*
X160825000Y-95222000D02*
X160825000Y-100378000D01*
X160865000Y-95221000D02*
X160865000Y-100379000D01*
X160905000Y-95220000D02*
X160905000Y-100380000D01*
X160945000Y-95220000D02*
X160945000Y-100380000D01*
X163565000Y-97800000D02*
G75*
G03*
X163565000Y-97800000I-2620000J0D01*
G01*
%TO.C,C2*%
X164025000Y-102830000D02*
X164025000Y-105570000D01*
X169265000Y-102830000D02*
X169265000Y-105570000D01*
X169265000Y-105570000D02*
X164025000Y-105570000D01*
X169265000Y-102830000D02*
X164025000Y-102830000D01*
%TO.C,C1*%
X169299775Y-96075000D02*
X169299775Y-96575000D01*
X169549775Y-96325000D02*
X169049775Y-96325000D01*
X164144000Y-97516000D02*
X164144000Y-98084000D01*
X164184000Y-97282000D02*
X164184000Y-98318000D01*
X164224000Y-97123000D02*
X164224000Y-98477000D01*
X164264000Y-96995000D02*
X164264000Y-98605000D01*
X164304000Y-96885000D02*
X164304000Y-98715000D01*
X164344000Y-96789000D02*
X164344000Y-98811000D01*
X164384000Y-96702000D02*
X164384000Y-98898000D01*
X164424000Y-96622000D02*
X164424000Y-98978000D01*
X164464000Y-98840000D02*
X164464000Y-99051000D01*
X164464000Y-96549000D02*
X164464000Y-96760000D01*
X164504000Y-98840000D02*
X164504000Y-99119000D01*
X164504000Y-96481000D02*
X164504000Y-96760000D01*
X164544000Y-98840000D02*
X164544000Y-99183000D01*
X164544000Y-96417000D02*
X164544000Y-96760000D01*
X164584000Y-98840000D02*
X164584000Y-99243000D01*
X164584000Y-96357000D02*
X164584000Y-96760000D01*
X164624000Y-98840000D02*
X164624000Y-99300000D01*
X164624000Y-96300000D02*
X164624000Y-96760000D01*
X164664000Y-98840000D02*
X164664000Y-99354000D01*
X164664000Y-96246000D02*
X164664000Y-96760000D01*
X164704000Y-98840000D02*
X164704000Y-99405000D01*
X164704000Y-96195000D02*
X164704000Y-96760000D01*
X164744000Y-98840000D02*
X164744000Y-99453000D01*
X164744000Y-96147000D02*
X164744000Y-96760000D01*
X164784000Y-98840000D02*
X164784000Y-99499000D01*
X164784000Y-96101000D02*
X164784000Y-96760000D01*
X164824000Y-98840000D02*
X164824000Y-99543000D01*
X164824000Y-96057000D02*
X164824000Y-96760000D01*
X164864000Y-98840000D02*
X164864000Y-99585000D01*
X164864000Y-96015000D02*
X164864000Y-96760000D01*
X164904000Y-98840000D02*
X164904000Y-99626000D01*
X164904000Y-95974000D02*
X164904000Y-96760000D01*
X164944000Y-98840000D02*
X164944000Y-99664000D01*
X164944000Y-95936000D02*
X164944000Y-96760000D01*
X164984000Y-98840000D02*
X164984000Y-99701000D01*
X164984000Y-95899000D02*
X164984000Y-96760000D01*
X165024000Y-98840000D02*
X165024000Y-99737000D01*
X165024000Y-95863000D02*
X165024000Y-96760000D01*
X165064000Y-98840000D02*
X165064000Y-99771000D01*
X165064000Y-95829000D02*
X165064000Y-96760000D01*
X165104000Y-98840000D02*
X165104000Y-99804000D01*
X165104000Y-95796000D02*
X165104000Y-96760000D01*
X165144000Y-98840000D02*
X165144000Y-99835000D01*
X165144000Y-95765000D02*
X165144000Y-96760000D01*
X165184000Y-98840000D02*
X165184000Y-99865000D01*
X165184000Y-95735000D02*
X165184000Y-96760000D01*
X165224000Y-98840000D02*
X165224000Y-99895000D01*
X165224000Y-95705000D02*
X165224000Y-96760000D01*
X165264000Y-98840000D02*
X165264000Y-99922000D01*
X165264000Y-95678000D02*
X165264000Y-96760000D01*
X165304000Y-98840000D02*
X165304000Y-99949000D01*
X165304000Y-95651000D02*
X165304000Y-96760000D01*
X165344000Y-98840000D02*
X165344000Y-99975000D01*
X165344000Y-95625000D02*
X165344000Y-96760000D01*
X165384000Y-98840000D02*
X165384000Y-100000000D01*
X165384000Y-95600000D02*
X165384000Y-96760000D01*
X165424000Y-98840000D02*
X165424000Y-100024000D01*
X165424000Y-95576000D02*
X165424000Y-96760000D01*
X165464000Y-98840000D02*
X165464000Y-100047000D01*
X165464000Y-95553000D02*
X165464000Y-96760000D01*
X165504000Y-98840000D02*
X165504000Y-100068000D01*
X165504000Y-95532000D02*
X165504000Y-96760000D01*
X165544000Y-98840000D02*
X165544000Y-100090000D01*
X165544000Y-95510000D02*
X165544000Y-96760000D01*
X165584000Y-98840000D02*
X165584000Y-100110000D01*
X165584000Y-95490000D02*
X165584000Y-96760000D01*
X165624000Y-98840000D02*
X165624000Y-100129000D01*
X165624000Y-95471000D02*
X165624000Y-96760000D01*
X165664000Y-98840000D02*
X165664000Y-100148000D01*
X165664000Y-95452000D02*
X165664000Y-96760000D01*
X165704000Y-98840000D02*
X165704000Y-100165000D01*
X165704000Y-95435000D02*
X165704000Y-96760000D01*
X165744000Y-98840000D02*
X165744000Y-100182000D01*
X165744000Y-95418000D02*
X165744000Y-96760000D01*
X165784000Y-98840000D02*
X165784000Y-100198000D01*
X165784000Y-95402000D02*
X165784000Y-96760000D01*
X165824000Y-98840000D02*
X165824000Y-100214000D01*
X165824000Y-95386000D02*
X165824000Y-96760000D01*
X165864000Y-98840000D02*
X165864000Y-100228000D01*
X165864000Y-95372000D02*
X165864000Y-96760000D01*
X165904000Y-98840000D02*
X165904000Y-100242000D01*
X165904000Y-95358000D02*
X165904000Y-96760000D01*
X165944000Y-98840000D02*
X165944000Y-100255000D01*
X165944000Y-95345000D02*
X165944000Y-96760000D01*
X165984000Y-98840000D02*
X165984000Y-100268000D01*
X165984000Y-95332000D02*
X165984000Y-96760000D01*
X166024000Y-98840000D02*
X166024000Y-100280000D01*
X166024000Y-95320000D02*
X166024000Y-96760000D01*
X166065000Y-98840000D02*
X166065000Y-100291000D01*
X166065000Y-95309000D02*
X166065000Y-96760000D01*
X166105000Y-98840000D02*
X166105000Y-100301000D01*
X166105000Y-95299000D02*
X166105000Y-96760000D01*
X166145000Y-98840000D02*
X166145000Y-100311000D01*
X166145000Y-95289000D02*
X166145000Y-96760000D01*
X166185000Y-98840000D02*
X166185000Y-100320000D01*
X166185000Y-95280000D02*
X166185000Y-96760000D01*
X166225000Y-98840000D02*
X166225000Y-100328000D01*
X166225000Y-95272000D02*
X166225000Y-96760000D01*
X166265000Y-98840000D02*
X166265000Y-100336000D01*
X166265000Y-95264000D02*
X166265000Y-96760000D01*
X166305000Y-98840000D02*
X166305000Y-100343000D01*
X166305000Y-95257000D02*
X166305000Y-96760000D01*
X166345000Y-98840000D02*
X166345000Y-100350000D01*
X166345000Y-95250000D02*
X166345000Y-96760000D01*
X166385000Y-98840000D02*
X166385000Y-100356000D01*
X166385000Y-95244000D02*
X166385000Y-96760000D01*
X166425000Y-98840000D02*
X166425000Y-100361000D01*
X166425000Y-95239000D02*
X166425000Y-96760000D01*
X166465000Y-98840000D02*
X166465000Y-100365000D01*
X166465000Y-95235000D02*
X166465000Y-96760000D01*
X166505000Y-98840000D02*
X166505000Y-100369000D01*
X166505000Y-95231000D02*
X166505000Y-96760000D01*
X166545000Y-95227000D02*
X166545000Y-100373000D01*
X166585000Y-95224000D02*
X166585000Y-100376000D01*
X166625000Y-95222000D02*
X166625000Y-100378000D01*
X166665000Y-95221000D02*
X166665000Y-100379000D01*
X166705000Y-95220000D02*
X166705000Y-100380000D01*
X166745000Y-95220000D02*
X166745000Y-100380000D01*
X169365000Y-97800000D02*
G75*
G03*
X169365000Y-97800000I-2620000J0D01*
G01*
%TO.C,R6*%
X163065000Y-150830000D02*
X162735000Y-150830000D01*
X163065000Y-144290000D02*
X163065000Y-150830000D01*
X162735000Y-144290000D02*
X163065000Y-144290000D01*
X160325000Y-150830000D02*
X160655000Y-150830000D01*
X160325000Y-144290000D02*
X160325000Y-150830000D01*
X160655000Y-144290000D02*
X160325000Y-144290000D01*
%TO.C,R5*%
X166565000Y-150830000D02*
X166235000Y-150830000D01*
X166565000Y-144290000D02*
X166565000Y-150830000D01*
X166235000Y-144290000D02*
X166565000Y-144290000D01*
X163825000Y-150830000D02*
X164155000Y-150830000D01*
X163825000Y-144290000D02*
X163825000Y-150830000D01*
X164155000Y-144290000D02*
X163825000Y-144290000D01*
%TO.C,R4*%
X156825000Y-144170000D02*
X157155000Y-144170000D01*
X156825000Y-150710000D02*
X156825000Y-144170000D01*
X157155000Y-150710000D02*
X156825000Y-150710000D01*
X159565000Y-144170000D02*
X159235000Y-144170000D01*
X159565000Y-150710000D02*
X159565000Y-144170000D01*
X159235000Y-150710000D02*
X159565000Y-150710000D01*
%TO.C,R3*%
X170315000Y-114210000D02*
X169985000Y-114210000D01*
X170315000Y-107670000D02*
X170315000Y-114210000D01*
X169985000Y-107670000D02*
X170315000Y-107670000D01*
X167575000Y-114210000D02*
X167905000Y-114210000D01*
X167575000Y-107670000D02*
X167575000Y-114210000D01*
X167905000Y-107670000D02*
X167575000Y-107670000D01*
%TO.C,R2*%
X166565000Y-114210000D02*
X166235000Y-114210000D01*
X166565000Y-107670000D02*
X166565000Y-114210000D01*
X166235000Y-107670000D02*
X166565000Y-107670000D01*
X163825000Y-114210000D02*
X164155000Y-114210000D01*
X163825000Y-107670000D02*
X163825000Y-114210000D01*
X164155000Y-107670000D02*
X163825000Y-107670000D01*
%TO.C,R1*%
X160325000Y-107670000D02*
X160655000Y-107670000D01*
X160325000Y-114210000D02*
X160325000Y-107670000D01*
X160655000Y-114210000D02*
X160325000Y-114210000D01*
X163065000Y-107670000D02*
X162735000Y-107670000D01*
X163065000Y-114210000D02*
X163065000Y-107670000D01*
X162735000Y-114210000D02*
X163065000Y-114210000D01*
%TO.C,D2*%
X170065000Y-149080000D02*
X167825000Y-149080000D01*
X170065000Y-148840000D02*
X167825000Y-148840000D01*
X170065000Y-148960000D02*
X167825000Y-148960000D01*
X168945000Y-144790000D02*
X168945000Y-145440000D01*
X168945000Y-150330000D02*
X168945000Y-149680000D01*
X170065000Y-145440000D02*
X170065000Y-149680000D01*
X167825000Y-145440000D02*
X170065000Y-145440000D01*
X167825000Y-149680000D02*
X167825000Y-145440000D01*
X170065000Y-149680000D02*
X167825000Y-149680000D01*
%TO.C,D1*%
X159315000Y-112460000D02*
X157075000Y-112460000D01*
X159315000Y-112220000D02*
X157075000Y-112220000D01*
X159315000Y-112340000D02*
X157075000Y-112340000D01*
X158195000Y-108170000D02*
X158195000Y-108820000D01*
X158195000Y-113710000D02*
X158195000Y-113060000D01*
X159315000Y-108820000D02*
X159315000Y-113060000D01*
X157075000Y-108820000D02*
X159315000Y-108820000D01*
X157075000Y-113060000D02*
X157075000Y-108820000D01*
X159315000Y-113060000D02*
X157075000Y-113060000D01*
%TO.C,R8*%
D11*
X155642619Y-100566666D02*
X156118809Y-100900000D01*
X155642619Y-101138095D02*
X156642619Y-101138095D01*
X156642619Y-100757142D01*
X156595000Y-100661904D01*
X156547380Y-100614285D01*
X156452142Y-100566666D01*
X156309285Y-100566666D01*
X156214047Y-100614285D01*
X156166428Y-100661904D01*
X156118809Y-100757142D01*
X156118809Y-101138095D01*
X156214047Y-99995238D02*
X156261666Y-100090476D01*
X156309285Y-100138095D01*
X156404523Y-100185714D01*
X156452142Y-100185714D01*
X156547380Y-100138095D01*
X156595000Y-100090476D01*
X156642619Y-99995238D01*
X156642619Y-99804761D01*
X156595000Y-99709523D01*
X156547380Y-99661904D01*
X156452142Y-99614285D01*
X156404523Y-99614285D01*
X156309285Y-99661904D01*
X156261666Y-99709523D01*
X156214047Y-99804761D01*
X156214047Y-99995238D01*
X156166428Y-100090476D01*
X156118809Y-100138095D01*
X156023571Y-100185714D01*
X155833095Y-100185714D01*
X155737857Y-100138095D01*
X155690238Y-100090476D01*
X155642619Y-99995238D01*
X155642619Y-99804761D01*
X155690238Y-99709523D01*
X155737857Y-99661904D01*
X155833095Y-99614285D01*
X156023571Y-99614285D01*
X156118809Y-99661904D01*
X156166428Y-99709523D01*
X156214047Y-99804761D01*
%TO.C,R7*%
X171947380Y-100033333D02*
X171471190Y-99700000D01*
X171947380Y-99461904D02*
X170947380Y-99461904D01*
X170947380Y-99842857D01*
X170995000Y-99938095D01*
X171042619Y-99985714D01*
X171137857Y-100033333D01*
X171280714Y-100033333D01*
X171375952Y-99985714D01*
X171423571Y-99938095D01*
X171471190Y-99842857D01*
X171471190Y-99461904D01*
X170947380Y-100366666D02*
X170947380Y-101033333D01*
X171947380Y-100604761D01*
%TO.C,D4*%
X157703095Y-91252380D02*
X157703095Y-90252380D01*
X157465000Y-90252380D01*
X157322142Y-90300000D01*
X157226904Y-90395238D01*
X157179285Y-90490476D01*
X157131666Y-90680952D01*
X157131666Y-90823809D01*
X157179285Y-91014285D01*
X157226904Y-91109523D01*
X157322142Y-91204761D01*
X157465000Y-91252380D01*
X157703095Y-91252380D01*
X156274523Y-90585714D02*
X156274523Y-91252380D01*
X156512619Y-90204761D02*
X156750714Y-90919047D01*
X156131666Y-90919047D01*
%TO.C,D3*%
X171103095Y-90926009D02*
X171103095Y-89926009D01*
X170865000Y-89926009D01*
X170722142Y-89973629D01*
X170626904Y-90068867D01*
X170579285Y-90164105D01*
X170531666Y-90354581D01*
X170531666Y-90497438D01*
X170579285Y-90687914D01*
X170626904Y-90783152D01*
X170722142Y-90878390D01*
X170865000Y-90926009D01*
X171103095Y-90926009D01*
X170198333Y-89926009D02*
X169579285Y-89926009D01*
X169912619Y-90306962D01*
X169769761Y-90306962D01*
X169674523Y-90354581D01*
X169626904Y-90402200D01*
X169579285Y-90497438D01*
X169579285Y-90735533D01*
X169626904Y-90830771D01*
X169674523Y-90878390D01*
X169769761Y-90926009D01*
X170055476Y-90926009D01*
X170150714Y-90878390D01*
X170198333Y-90830771D01*
%TO.C,C4*%
X161061666Y-102357142D02*
X161109285Y-102404761D01*
X161252142Y-102452380D01*
X161347380Y-102452380D01*
X161490238Y-102404761D01*
X161585476Y-102309523D01*
X161633095Y-102214285D01*
X161680714Y-102023809D01*
X161680714Y-101880952D01*
X161633095Y-101690476D01*
X161585476Y-101595238D01*
X161490238Y-101500000D01*
X161347380Y-101452380D01*
X161252142Y-101452380D01*
X161109285Y-101500000D01*
X161061666Y-101547619D01*
X160204523Y-101785714D02*
X160204523Y-102452380D01*
X160442619Y-101404761D02*
X160680714Y-102119047D01*
X160061666Y-102119047D01*
%TO.C,C3*%
X161111666Y-94407142D02*
X161159285Y-94454761D01*
X161302142Y-94502380D01*
X161397380Y-94502380D01*
X161540238Y-94454761D01*
X161635476Y-94359523D01*
X161683095Y-94264285D01*
X161730714Y-94073809D01*
X161730714Y-93930952D01*
X161683095Y-93740476D01*
X161635476Y-93645238D01*
X161540238Y-93550000D01*
X161397380Y-93502380D01*
X161302142Y-93502380D01*
X161159285Y-93550000D01*
X161111666Y-93597619D01*
X160778333Y-93502380D02*
X160159285Y-93502380D01*
X160492619Y-93883333D01*
X160349761Y-93883333D01*
X160254523Y-93930952D01*
X160206904Y-93978571D01*
X160159285Y-94073809D01*
X160159285Y-94311904D01*
X160206904Y-94407142D01*
X160254523Y-94454761D01*
X160349761Y-94502380D01*
X160635476Y-94502380D01*
X160730714Y-94454761D01*
X160778333Y-94407142D01*
%TO.C,C2*%
X166811666Y-102357142D02*
X166859285Y-102404761D01*
X167002142Y-102452380D01*
X167097380Y-102452380D01*
X167240238Y-102404761D01*
X167335476Y-102309523D01*
X167383095Y-102214285D01*
X167430714Y-102023809D01*
X167430714Y-101880952D01*
X167383095Y-101690476D01*
X167335476Y-101595238D01*
X167240238Y-101500000D01*
X167097380Y-101452380D01*
X167002142Y-101452380D01*
X166859285Y-101500000D01*
X166811666Y-101547619D01*
X166430714Y-101547619D02*
X166383095Y-101500000D01*
X166287857Y-101452380D01*
X166049761Y-101452380D01*
X165954523Y-101500000D01*
X165906904Y-101547619D01*
X165859285Y-101642857D01*
X165859285Y-101738095D01*
X165906904Y-101880952D01*
X166478333Y-102452380D01*
X165859285Y-102452380D01*
%TO.C,C1*%
X166911666Y-94407142D02*
X166959285Y-94454761D01*
X167102142Y-94502380D01*
X167197380Y-94502380D01*
X167340238Y-94454761D01*
X167435476Y-94359523D01*
X167483095Y-94264285D01*
X167530714Y-94073809D01*
X167530714Y-93930952D01*
X167483095Y-93740476D01*
X167435476Y-93645238D01*
X167340238Y-93550000D01*
X167197380Y-93502380D01*
X167102142Y-93502380D01*
X166959285Y-93550000D01*
X166911666Y-93597619D01*
X165959285Y-94502380D02*
X166530714Y-94502380D01*
X166245000Y-94502380D02*
X166245000Y-93502380D01*
X166340238Y-93645238D01*
X166435476Y-93740476D01*
X166530714Y-93788095D01*
%TO.C,R6*%
X162147380Y-147393333D02*
X161671190Y-147060000D01*
X162147380Y-146821904D02*
X161147380Y-146821904D01*
X161147380Y-147202857D01*
X161195000Y-147298095D01*
X161242619Y-147345714D01*
X161337857Y-147393333D01*
X161480714Y-147393333D01*
X161575952Y-147345714D01*
X161623571Y-147298095D01*
X161671190Y-147202857D01*
X161671190Y-146821904D01*
X161147380Y-148250476D02*
X161147380Y-148060000D01*
X161195000Y-147964761D01*
X161242619Y-147917142D01*
X161385476Y-147821904D01*
X161575952Y-147774285D01*
X161956904Y-147774285D01*
X162052142Y-147821904D01*
X162099761Y-147869523D01*
X162147380Y-147964761D01*
X162147380Y-148155238D01*
X162099761Y-148250476D01*
X162052142Y-148298095D01*
X161956904Y-148345714D01*
X161718809Y-148345714D01*
X161623571Y-148298095D01*
X161575952Y-148250476D01*
X161528333Y-148155238D01*
X161528333Y-147964761D01*
X161575952Y-147869523D01*
X161623571Y-147821904D01*
X161718809Y-147774285D01*
%TO.C,R5*%
X165647380Y-147393333D02*
X165171190Y-147060000D01*
X165647380Y-146821904D02*
X164647380Y-146821904D01*
X164647380Y-147202857D01*
X164695000Y-147298095D01*
X164742619Y-147345714D01*
X164837857Y-147393333D01*
X164980714Y-147393333D01*
X165075952Y-147345714D01*
X165123571Y-147298095D01*
X165171190Y-147202857D01*
X165171190Y-146821904D01*
X164647380Y-148298095D02*
X164647380Y-147821904D01*
X165123571Y-147774285D01*
X165075952Y-147821904D01*
X165028333Y-147917142D01*
X165028333Y-148155238D01*
X165075952Y-148250476D01*
X165123571Y-148298095D01*
X165218809Y-148345714D01*
X165456904Y-148345714D01*
X165552142Y-148298095D01*
X165599761Y-148250476D01*
X165647380Y-148155238D01*
X165647380Y-147917142D01*
X165599761Y-147821904D01*
X165552142Y-147774285D01*
%TO.C,R4*%
X158647380Y-147333333D02*
X158171190Y-147000000D01*
X158647380Y-146761904D02*
X157647380Y-146761904D01*
X157647380Y-147142857D01*
X157695000Y-147238095D01*
X157742619Y-147285714D01*
X157837857Y-147333333D01*
X157980714Y-147333333D01*
X158075952Y-147285714D01*
X158123571Y-147238095D01*
X158171190Y-147142857D01*
X158171190Y-146761904D01*
X157980714Y-148190476D02*
X158647380Y-148190476D01*
X157599761Y-147952380D02*
X158314047Y-147714285D01*
X158314047Y-148333333D01*
%TO.C,R3*%
X169397380Y-110773333D02*
X168921190Y-110440000D01*
X169397380Y-110201904D02*
X168397380Y-110201904D01*
X168397380Y-110582857D01*
X168445000Y-110678095D01*
X168492619Y-110725714D01*
X168587857Y-110773333D01*
X168730714Y-110773333D01*
X168825952Y-110725714D01*
X168873571Y-110678095D01*
X168921190Y-110582857D01*
X168921190Y-110201904D01*
X168397380Y-111106666D02*
X168397380Y-111725714D01*
X168778333Y-111392380D01*
X168778333Y-111535238D01*
X168825952Y-111630476D01*
X168873571Y-111678095D01*
X168968809Y-111725714D01*
X169206904Y-111725714D01*
X169302142Y-111678095D01*
X169349761Y-111630476D01*
X169397380Y-111535238D01*
X169397380Y-111249523D01*
X169349761Y-111154285D01*
X169302142Y-111106666D01*
%TO.C,R2*%
X165647380Y-110773333D02*
X165171190Y-110440000D01*
X165647380Y-110201904D02*
X164647380Y-110201904D01*
X164647380Y-110582857D01*
X164695000Y-110678095D01*
X164742619Y-110725714D01*
X164837857Y-110773333D01*
X164980714Y-110773333D01*
X165075952Y-110725714D01*
X165123571Y-110678095D01*
X165171190Y-110582857D01*
X165171190Y-110201904D01*
X164742619Y-111154285D02*
X164695000Y-111201904D01*
X164647380Y-111297142D01*
X164647380Y-111535238D01*
X164695000Y-111630476D01*
X164742619Y-111678095D01*
X164837857Y-111725714D01*
X164933095Y-111725714D01*
X165075952Y-111678095D01*
X165647380Y-111106666D01*
X165647380Y-111725714D01*
%TO.C,R1*%
X161242619Y-110966666D02*
X161718809Y-111300000D01*
X161242619Y-111538095D02*
X162242619Y-111538095D01*
X162242619Y-111157142D01*
X162195000Y-111061904D01*
X162147380Y-111014285D01*
X162052142Y-110966666D01*
X161909285Y-110966666D01*
X161814047Y-111014285D01*
X161766428Y-111061904D01*
X161718809Y-111157142D01*
X161718809Y-111538095D01*
X161242619Y-110014285D02*
X161242619Y-110585714D01*
X161242619Y-110300000D02*
X162242619Y-110300000D01*
X162099761Y-110395238D01*
X162004523Y-110490476D01*
X161956904Y-110585714D01*
%TO.C,D2*%
X169397380Y-146511904D02*
X168397380Y-146511904D01*
X168397380Y-146750000D01*
X168445000Y-146892857D01*
X168540238Y-146988095D01*
X168635476Y-147035714D01*
X168825952Y-147083333D01*
X168968809Y-147083333D01*
X169159285Y-147035714D01*
X169254523Y-146988095D01*
X169349761Y-146892857D01*
X169397380Y-146750000D01*
X169397380Y-146511904D01*
X168492619Y-147464285D02*
X168445000Y-147511904D01*
X168397380Y-147607142D01*
X168397380Y-147845238D01*
X168445000Y-147940476D01*
X168492619Y-147988095D01*
X168587857Y-148035714D01*
X168683095Y-148035714D01*
X168825952Y-147988095D01*
X169397380Y-147416666D01*
X169397380Y-148035714D01*
%TO.C,D1*%
X158747380Y-110061904D02*
X157747380Y-110061904D01*
X157747380Y-110300000D01*
X157795000Y-110442857D01*
X157890238Y-110538095D01*
X157985476Y-110585714D01*
X158175952Y-110633333D01*
X158318809Y-110633333D01*
X158509285Y-110585714D01*
X158604523Y-110538095D01*
X158699761Y-110442857D01*
X158747380Y-110300000D01*
X158747380Y-110061904D01*
X158747380Y-111585714D02*
X158747380Y-111014285D01*
X158747380Y-111300000D02*
X157747380Y-111300000D01*
X157890238Y-111204761D01*
X157985476Y-111109523D01*
X158033095Y-111014285D01*
%TD*%
M02*
