%TF.GenerationSoftware,KiCad,Pcbnew,5.1.7-a382d34a8~87~ubuntu18.04.1*%
%TF.CreationDate,2020-10-20T20:58:06+01:00*%
%TF.ProjectId,transistor-matchers,7472616e-7369-4737-946f-722d6d617463,rev?*%
%TF.SameCoordinates,Original*%
%TF.FileFunction,Legend,Top*%
%TF.FilePolarity,Positive*%
%FSLAX46Y46*%
G04 Gerber Fmt 4.6, Leading zero omitted, Abs format (unit mm)*
G04 Created by KiCad (PCBNEW 5.1.7-a382d34a8~87~ubuntu18.04.1) date 2020-10-20 20:58:06*
%MOMM*%
%LPD*%
G01*
G04 APERTURE LIST*
%ADD10C,0.150000*%
%ADD11C,0.100000*%
%ADD12C,0.750000*%
%ADD13C,0.120000*%
G04 APERTURE END LIST*
D10*
X155159115Y-120535694D02*
X155087687Y-120607122D01*
X154873401Y-120678551D01*
X154730544Y-120678551D01*
X154516258Y-120607122D01*
X154373401Y-120464265D01*
X154301972Y-120321408D01*
X154230544Y-120035694D01*
X154230544Y-119821408D01*
X154301972Y-119535694D01*
X154373401Y-119392837D01*
X154516258Y-119249980D01*
X154730544Y-119178551D01*
X154873401Y-119178551D01*
X155087687Y-119249980D01*
X155159115Y-119321408D01*
D11*
G36*
X156694830Y-119999980D02*
G01*
X155944830Y-120749980D01*
X155944830Y-119249980D01*
X156694830Y-119999980D01*
G37*
X156694830Y-119999980D02*
X155944830Y-120749980D01*
X155944830Y-119249980D01*
X156694830Y-119999980D01*
G36*
X156694830Y-124999980D02*
G01*
X155944830Y-125749980D01*
X155944830Y-124249980D01*
X156694830Y-124999980D01*
G37*
X156694830Y-124999980D02*
X155944830Y-125749980D01*
X155944830Y-124249980D01*
X156694830Y-124999980D01*
G36*
X156694830Y-122499980D02*
G01*
X155944830Y-123249980D01*
X155944830Y-121749980D01*
X156694830Y-122499980D01*
G37*
X156694830Y-122499980D02*
X155944830Y-123249980D01*
X155944830Y-121749980D01*
X156694830Y-122499980D01*
D10*
X154801972Y-122392837D02*
X155016258Y-122464265D01*
X155087687Y-122535694D01*
X155159115Y-122678551D01*
X155159115Y-122892837D01*
X155087687Y-123035694D01*
X155016258Y-123107122D01*
X154873401Y-123178551D01*
X154301972Y-123178551D01*
X154301972Y-121678551D01*
X154801972Y-121678551D01*
X154944830Y-121749980D01*
X155016258Y-121821408D01*
X155087687Y-121964265D01*
X155087687Y-122107122D01*
X155016258Y-122249980D01*
X154944830Y-122321408D01*
X154801972Y-122392837D01*
X154301972Y-122392837D01*
X154373401Y-124892837D02*
X154873401Y-124892837D01*
X155087687Y-125678551D02*
X154373401Y-125678551D01*
X154373401Y-124178551D01*
X155087687Y-124178551D01*
X172551972Y-122392837D02*
X172766258Y-122464265D01*
X172837687Y-122535694D01*
X172909115Y-122678551D01*
X172909115Y-122892837D01*
X172837687Y-123035694D01*
X172766258Y-123107122D01*
X172623401Y-123178551D01*
X172051972Y-123178551D01*
X172051972Y-121678551D01*
X172551972Y-121678551D01*
X172694830Y-121749980D01*
X172766258Y-121821408D01*
X172837687Y-121964265D01*
X172837687Y-122107122D01*
X172766258Y-122249980D01*
X172694830Y-122321408D01*
X172551972Y-122392837D01*
X172051972Y-122392837D01*
D11*
G36*
X171194830Y-123249980D02*
G01*
X170444830Y-122499980D01*
X171194830Y-121749980D01*
X171194830Y-123249980D01*
G37*
X171194830Y-123249980D02*
X170444830Y-122499980D01*
X171194830Y-121749980D01*
X171194830Y-123249980D01*
D10*
X172123401Y-124892837D02*
X172623401Y-124892837D01*
X172837687Y-125678551D02*
X172123401Y-125678551D01*
X172123401Y-124178551D01*
X172837687Y-124178551D01*
D11*
G36*
X171194830Y-125749980D02*
G01*
X170444830Y-124999980D01*
X171194830Y-124249980D01*
X171194830Y-125749980D01*
G37*
X171194830Y-125749980D02*
X170444830Y-124999980D01*
X171194830Y-124249980D01*
X171194830Y-125749980D01*
D10*
X172909115Y-120535694D02*
X172837687Y-120607122D01*
X172623401Y-120678551D01*
X172480544Y-120678551D01*
X172266258Y-120607122D01*
X172123401Y-120464265D01*
X172051972Y-120321408D01*
X171980544Y-120035694D01*
X171980544Y-119821408D01*
X172051972Y-119535694D01*
X172123401Y-119392837D01*
X172266258Y-119249980D01*
X172480544Y-119178551D01*
X172623401Y-119178551D01*
X172837687Y-119249980D01*
X172909115Y-119321408D01*
D11*
G36*
X171194830Y-120749980D02*
G01*
X170444830Y-119999980D01*
X171194830Y-119249980D01*
X171194830Y-120749980D01*
G37*
X171194830Y-120749980D02*
X170444830Y-119999980D01*
X171194830Y-119249980D01*
X171194830Y-120749980D01*
G36*
X171194830Y-161499980D02*
G01*
X170444830Y-160749980D01*
X171194830Y-159999980D01*
X171194830Y-161499980D01*
G37*
X171194830Y-161499980D02*
X170444830Y-160749980D01*
X171194830Y-159999980D01*
X171194830Y-161499980D01*
G36*
X171194830Y-158999980D02*
G01*
X170444830Y-158249980D01*
X171194830Y-157499980D01*
X171194830Y-158999980D01*
G37*
X171194830Y-158999980D02*
X170444830Y-158249980D01*
X171194830Y-157499980D01*
X171194830Y-158999980D01*
G36*
X171194830Y-156499980D02*
G01*
X170444830Y-155749980D01*
X171194830Y-154999980D01*
X171194830Y-156499980D01*
G37*
X171194830Y-156499980D02*
X170444830Y-155749980D01*
X171194830Y-154999980D01*
X171194830Y-156499980D01*
G36*
X156944830Y-160749980D02*
G01*
X156194830Y-161499980D01*
X156194830Y-159999980D01*
X156944830Y-160749980D01*
G37*
X156944830Y-160749980D02*
X156194830Y-161499980D01*
X156194830Y-159999980D01*
X156944830Y-160749980D01*
G36*
X156944830Y-158249980D02*
G01*
X156194830Y-158999980D01*
X156194830Y-157499980D01*
X156944830Y-158249980D01*
G37*
X156944830Y-158249980D02*
X156194830Y-158999980D01*
X156194830Y-157499980D01*
X156944830Y-158249980D01*
G36*
X156944830Y-155749980D02*
G01*
X156194830Y-156499980D01*
X156194830Y-154999980D01*
X156944830Y-155749980D01*
G37*
X156944830Y-155749980D02*
X156194830Y-156499980D01*
X156194830Y-154999980D01*
X156944830Y-155749980D01*
D10*
X154623401Y-160642837D02*
X155123401Y-160642837D01*
X155337687Y-161428551D02*
X154623401Y-161428551D01*
X154623401Y-159928551D01*
X155337687Y-159928551D01*
X155051972Y-158142837D02*
X155266258Y-158214265D01*
X155337687Y-158285694D01*
X155409115Y-158428551D01*
X155409115Y-158642837D01*
X155337687Y-158785694D01*
X155266258Y-158857122D01*
X155123401Y-158928551D01*
X154551972Y-158928551D01*
X154551972Y-157428551D01*
X155051972Y-157428551D01*
X155194830Y-157499980D01*
X155266258Y-157571408D01*
X155337687Y-157714265D01*
X155337687Y-157857122D01*
X155266258Y-157999980D01*
X155194830Y-158071408D01*
X155051972Y-158142837D01*
X154551972Y-158142837D01*
X155409115Y-156285694D02*
X155337687Y-156357122D01*
X155123401Y-156428551D01*
X154980544Y-156428551D01*
X154766258Y-156357122D01*
X154623401Y-156214265D01*
X154551972Y-156071408D01*
X154480544Y-155785694D01*
X154480544Y-155571408D01*
X154551972Y-155285694D01*
X154623401Y-155142837D01*
X154766258Y-154999980D01*
X154980544Y-154928551D01*
X155123401Y-154928551D01*
X155337687Y-154999980D01*
X155409115Y-155071408D01*
X172123401Y-160642837D02*
X172623401Y-160642837D01*
X172837687Y-161428551D02*
X172123401Y-161428551D01*
X172123401Y-159928551D01*
X172837687Y-159928551D01*
X172551972Y-158142837D02*
X172766258Y-158214265D01*
X172837687Y-158285694D01*
X172909115Y-158428551D01*
X172909115Y-158642837D01*
X172837687Y-158785694D01*
X172766258Y-158857122D01*
X172623401Y-158928551D01*
X172051972Y-158928551D01*
X172051972Y-157428551D01*
X172551972Y-157428551D01*
X172694830Y-157499980D01*
X172766258Y-157571408D01*
X172837687Y-157714265D01*
X172837687Y-157857122D01*
X172766258Y-157999980D01*
X172694830Y-158071408D01*
X172551972Y-158142837D01*
X172051972Y-158142837D01*
X172909115Y-156285694D02*
X172837687Y-156357122D01*
X172623401Y-156428551D01*
X172480544Y-156428551D01*
X172266258Y-156357122D01*
X172123401Y-156214265D01*
X172051972Y-156071408D01*
X171980544Y-155785694D01*
X171980544Y-155571408D01*
X172051972Y-155285694D01*
X172123401Y-155142837D01*
X172266258Y-154999980D01*
X172480544Y-154928551D01*
X172623401Y-154928551D01*
X172837687Y-154999980D01*
X172909115Y-155071408D01*
D12*
X160166258Y-112357122D02*
X160166258Y-109357122D01*
X161880544Y-112357122D01*
X161880544Y-109357122D01*
X163309115Y-112357122D02*
X163309115Y-109357122D01*
X164451972Y-109357122D01*
X164737687Y-109499980D01*
X164880544Y-109642837D01*
X165023401Y-109928551D01*
X165023401Y-110357122D01*
X164880544Y-110642837D01*
X164737687Y-110785694D01*
X164451972Y-110928551D01*
X163309115Y-110928551D01*
X166309115Y-112357122D02*
X166309115Y-109357122D01*
X168023401Y-112357122D01*
X168023401Y-109357122D01*
X160237687Y-149157122D02*
X160237687Y-146157122D01*
X161380544Y-146157122D01*
X161666258Y-146299980D01*
X161809115Y-146442837D01*
X161951972Y-146728551D01*
X161951972Y-147157122D01*
X161809115Y-147442837D01*
X161666258Y-147585694D01*
X161380544Y-147728551D01*
X160237687Y-147728551D01*
X163237687Y-149157122D02*
X163237687Y-146157122D01*
X164951972Y-149157122D01*
X164951972Y-146157122D01*
X166380544Y-149157122D02*
X166380544Y-146157122D01*
X167523401Y-146157122D01*
X167809115Y-146299980D01*
X167951972Y-146442837D01*
X168094830Y-146728551D01*
X168094830Y-147157122D01*
X167951972Y-147442837D01*
X167809115Y-147585694D01*
X167523401Y-147728551D01*
X166380544Y-147728551D01*
D13*
%TO.C,PNP-TEST2*%
X170500000Y-170000000D02*
G75*
G03*
X170500000Y-170000000I-2250000J0D01*
G01*
%TO.C,PNP-TEST1*%
X160750000Y-170000000D02*
G75*
G03*
X160750000Y-170000000I-2250000J0D01*
G01*
%TO.C,NPN-TEST2*%
X170445000Y-134250000D02*
G75*
G03*
X170445000Y-134250000I-2250000J0D01*
G01*
%TO.C,NPN-TEST1*%
X161195000Y-134250000D02*
G75*
G03*
X161195000Y-134250000I-2250000J0D01*
G01*
%TO.C,PNP2*%
X168250000Y-162120000D02*
X166920000Y-162120000D01*
X166920000Y-162120000D02*
X166920000Y-160790000D01*
X166920000Y-159520000D02*
X166920000Y-154380000D01*
X169580000Y-154380000D02*
X166920000Y-154380000D01*
X169580000Y-159520000D02*
X169580000Y-154380000D01*
X169580000Y-159520000D02*
X166920000Y-159520000D01*
%TO.C,PNP1*%
X158945000Y-162080000D02*
X157615000Y-162080000D01*
X157615000Y-162080000D02*
X157615000Y-160750000D01*
X157615000Y-159480000D02*
X157615000Y-154340000D01*
X160275000Y-154340000D02*
X157615000Y-154340000D01*
X160275000Y-159480000D02*
X160275000Y-154340000D01*
X160275000Y-159480000D02*
X157615000Y-159480000D01*
%TO.C,NPN2*%
X168295000Y-118630000D02*
X169625000Y-118630000D01*
X169625000Y-118630000D02*
X169625000Y-119960000D01*
X169625000Y-121230000D02*
X169625000Y-126370000D01*
X166965000Y-126370000D02*
X169625000Y-126370000D01*
X166965000Y-121230000D02*
X166965000Y-126370000D01*
X166965000Y-121230000D02*
X169625000Y-121230000D01*
%TO.C,NPN1*%
X158945000Y-118630000D02*
X160275000Y-118630000D01*
X160275000Y-118630000D02*
X160275000Y-119960000D01*
X160275000Y-121230000D02*
X160275000Y-126370000D01*
X157615000Y-126370000D02*
X160275000Y-126370000D01*
X157615000Y-121230000D02*
X157615000Y-126370000D01*
X157615000Y-121230000D02*
X160275000Y-121230000D01*
%TO.C,PNP-TEST2*%
D10*
X172952380Y-174071428D02*
X171952380Y-174071428D01*
X171952380Y-173690476D01*
X172000000Y-173595238D01*
X172047619Y-173547619D01*
X172142857Y-173500000D01*
X172285714Y-173500000D01*
X172380952Y-173547619D01*
X172428571Y-173595238D01*
X172476190Y-173690476D01*
X172476190Y-174071428D01*
X172952380Y-173071428D02*
X171952380Y-173071428D01*
X172952380Y-172500000D01*
X171952380Y-172500000D01*
X172952380Y-172023809D02*
X171952380Y-172023809D01*
X171952380Y-171642857D01*
X172000000Y-171547619D01*
X172047619Y-171500000D01*
X172142857Y-171452380D01*
X172285714Y-171452380D01*
X172380952Y-171500000D01*
X172428571Y-171547619D01*
X172476190Y-171642857D01*
X172476190Y-172023809D01*
X172571428Y-171023809D02*
X172571428Y-170261904D01*
X171952380Y-169928571D02*
X171952380Y-169357142D01*
X172952380Y-169642857D02*
X171952380Y-169642857D01*
X172428571Y-169023809D02*
X172428571Y-168690476D01*
X172952380Y-168547619D02*
X172952380Y-169023809D01*
X171952380Y-169023809D01*
X171952380Y-168547619D01*
X172904761Y-168166666D02*
X172952380Y-168023809D01*
X172952380Y-167785714D01*
X172904761Y-167690476D01*
X172857142Y-167642857D01*
X172761904Y-167595238D01*
X172666666Y-167595238D01*
X172571428Y-167642857D01*
X172523809Y-167690476D01*
X172476190Y-167785714D01*
X172428571Y-167976190D01*
X172380952Y-168071428D01*
X172333333Y-168119047D01*
X172238095Y-168166666D01*
X172142857Y-168166666D01*
X172047619Y-168119047D01*
X172000000Y-168071428D01*
X171952380Y-167976190D01*
X171952380Y-167738095D01*
X172000000Y-167595238D01*
X171952380Y-167309523D02*
X171952380Y-166738095D01*
X172952380Y-167023809D02*
X171952380Y-167023809D01*
X172047619Y-166452380D02*
X172000000Y-166404761D01*
X171952380Y-166309523D01*
X171952380Y-166071428D01*
X172000000Y-165976190D01*
X172047619Y-165928571D01*
X172142857Y-165880952D01*
X172238095Y-165880952D01*
X172380952Y-165928571D01*
X172952380Y-166500000D01*
X172952380Y-165880952D01*
%TO.C,PNP-TEST1*%
X155202380Y-174071428D02*
X154202380Y-174071428D01*
X154202380Y-173690476D01*
X154250000Y-173595238D01*
X154297619Y-173547619D01*
X154392857Y-173500000D01*
X154535714Y-173500000D01*
X154630952Y-173547619D01*
X154678571Y-173595238D01*
X154726190Y-173690476D01*
X154726190Y-174071428D01*
X155202380Y-173071428D02*
X154202380Y-173071428D01*
X155202380Y-172500000D01*
X154202380Y-172500000D01*
X155202380Y-172023809D02*
X154202380Y-172023809D01*
X154202380Y-171642857D01*
X154250000Y-171547619D01*
X154297619Y-171500000D01*
X154392857Y-171452380D01*
X154535714Y-171452380D01*
X154630952Y-171500000D01*
X154678571Y-171547619D01*
X154726190Y-171642857D01*
X154726190Y-172023809D01*
X154821428Y-171023809D02*
X154821428Y-170261904D01*
X154202380Y-169928571D02*
X154202380Y-169357142D01*
X155202380Y-169642857D02*
X154202380Y-169642857D01*
X154678571Y-169023809D02*
X154678571Y-168690476D01*
X155202380Y-168547619D02*
X155202380Y-169023809D01*
X154202380Y-169023809D01*
X154202380Y-168547619D01*
X155154761Y-168166666D02*
X155202380Y-168023809D01*
X155202380Y-167785714D01*
X155154761Y-167690476D01*
X155107142Y-167642857D01*
X155011904Y-167595238D01*
X154916666Y-167595238D01*
X154821428Y-167642857D01*
X154773809Y-167690476D01*
X154726190Y-167785714D01*
X154678571Y-167976190D01*
X154630952Y-168071428D01*
X154583333Y-168119047D01*
X154488095Y-168166666D01*
X154392857Y-168166666D01*
X154297619Y-168119047D01*
X154250000Y-168071428D01*
X154202380Y-167976190D01*
X154202380Y-167738095D01*
X154250000Y-167595238D01*
X154202380Y-167309523D02*
X154202380Y-166738095D01*
X155202380Y-167023809D02*
X154202380Y-167023809D01*
X155202380Y-165880952D02*
X155202380Y-166452380D01*
X155202380Y-166166666D02*
X154202380Y-166166666D01*
X154345238Y-166261904D01*
X154440476Y-166357142D01*
X154488095Y-166452380D01*
%TO.C,NPN-TEST2*%
X172897380Y-138345238D02*
X171897380Y-138345238D01*
X172897380Y-137773809D01*
X171897380Y-137773809D01*
X172897380Y-137297619D02*
X171897380Y-137297619D01*
X171897380Y-136916666D01*
X171945000Y-136821428D01*
X171992619Y-136773809D01*
X172087857Y-136726190D01*
X172230714Y-136726190D01*
X172325952Y-136773809D01*
X172373571Y-136821428D01*
X172421190Y-136916666D01*
X172421190Y-137297619D01*
X172897380Y-136297619D02*
X171897380Y-136297619D01*
X172897380Y-135726190D01*
X171897380Y-135726190D01*
X172516428Y-135250000D02*
X172516428Y-134488095D01*
X171897380Y-134154761D02*
X171897380Y-133583333D01*
X172897380Y-133869047D02*
X171897380Y-133869047D01*
X172373571Y-133250000D02*
X172373571Y-132916666D01*
X172897380Y-132773809D02*
X172897380Y-133250000D01*
X171897380Y-133250000D01*
X171897380Y-132773809D01*
X172849761Y-132392857D02*
X172897380Y-132250000D01*
X172897380Y-132011904D01*
X172849761Y-131916666D01*
X172802142Y-131869047D01*
X172706904Y-131821428D01*
X172611666Y-131821428D01*
X172516428Y-131869047D01*
X172468809Y-131916666D01*
X172421190Y-132011904D01*
X172373571Y-132202380D01*
X172325952Y-132297619D01*
X172278333Y-132345238D01*
X172183095Y-132392857D01*
X172087857Y-132392857D01*
X171992619Y-132345238D01*
X171945000Y-132297619D01*
X171897380Y-132202380D01*
X171897380Y-131964285D01*
X171945000Y-131821428D01*
X171897380Y-131535714D02*
X171897380Y-130964285D01*
X172897380Y-131250000D02*
X171897380Y-131250000D01*
X171992619Y-130678571D02*
X171945000Y-130630952D01*
X171897380Y-130535714D01*
X171897380Y-130297619D01*
X171945000Y-130202380D01*
X171992619Y-130154761D01*
X172087857Y-130107142D01*
X172183095Y-130107142D01*
X172325952Y-130154761D01*
X172897380Y-130726190D01*
X172897380Y-130107142D01*
%TO.C,NPN-TEST1*%
X155647380Y-138345238D02*
X154647380Y-138345238D01*
X155647380Y-137773809D01*
X154647380Y-137773809D01*
X155647380Y-137297619D02*
X154647380Y-137297619D01*
X154647380Y-136916666D01*
X154695000Y-136821428D01*
X154742619Y-136773809D01*
X154837857Y-136726190D01*
X154980714Y-136726190D01*
X155075952Y-136773809D01*
X155123571Y-136821428D01*
X155171190Y-136916666D01*
X155171190Y-137297619D01*
X155647380Y-136297619D02*
X154647380Y-136297619D01*
X155647380Y-135726190D01*
X154647380Y-135726190D01*
X155266428Y-135250000D02*
X155266428Y-134488095D01*
X154647380Y-134154761D02*
X154647380Y-133583333D01*
X155647380Y-133869047D02*
X154647380Y-133869047D01*
X155123571Y-133250000D02*
X155123571Y-132916666D01*
X155647380Y-132773809D02*
X155647380Y-133250000D01*
X154647380Y-133250000D01*
X154647380Y-132773809D01*
X155599761Y-132392857D02*
X155647380Y-132250000D01*
X155647380Y-132011904D01*
X155599761Y-131916666D01*
X155552142Y-131869047D01*
X155456904Y-131821428D01*
X155361666Y-131821428D01*
X155266428Y-131869047D01*
X155218809Y-131916666D01*
X155171190Y-132011904D01*
X155123571Y-132202380D01*
X155075952Y-132297619D01*
X155028333Y-132345238D01*
X154933095Y-132392857D01*
X154837857Y-132392857D01*
X154742619Y-132345238D01*
X154695000Y-132297619D01*
X154647380Y-132202380D01*
X154647380Y-131964285D01*
X154695000Y-131821428D01*
X154647380Y-131535714D02*
X154647380Y-130964285D01*
X155647380Y-131250000D02*
X154647380Y-131250000D01*
X155647380Y-130107142D02*
X155647380Y-130678571D01*
X155647380Y-130392857D02*
X154647380Y-130392857D01*
X154790238Y-130488095D01*
X154885476Y-130583333D01*
X154933095Y-130678571D01*
%TO.C,PNP2*%
X166488095Y-164012380D02*
X166488095Y-163012380D01*
X166869047Y-163012380D01*
X166964285Y-163060000D01*
X167011904Y-163107619D01*
X167059523Y-163202857D01*
X167059523Y-163345714D01*
X167011904Y-163440952D01*
X166964285Y-163488571D01*
X166869047Y-163536190D01*
X166488095Y-163536190D01*
X167488095Y-164012380D02*
X167488095Y-163012380D01*
X168059523Y-164012380D01*
X168059523Y-163012380D01*
X168535714Y-164012380D02*
X168535714Y-163012380D01*
X168916666Y-163012380D01*
X169011904Y-163060000D01*
X169059523Y-163107619D01*
X169107142Y-163202857D01*
X169107142Y-163345714D01*
X169059523Y-163440952D01*
X169011904Y-163488571D01*
X168916666Y-163536190D01*
X168535714Y-163536190D01*
X169488095Y-163107619D02*
X169535714Y-163060000D01*
X169630952Y-163012380D01*
X169869047Y-163012380D01*
X169964285Y-163060000D01*
X170011904Y-163107619D01*
X170059523Y-163202857D01*
X170059523Y-163298095D01*
X170011904Y-163440952D01*
X169440476Y-164012380D01*
X170059523Y-164012380D01*
%TO.C,PNP1*%
X157183095Y-163972380D02*
X157183095Y-162972380D01*
X157564047Y-162972380D01*
X157659285Y-163020000D01*
X157706904Y-163067619D01*
X157754523Y-163162857D01*
X157754523Y-163305714D01*
X157706904Y-163400952D01*
X157659285Y-163448571D01*
X157564047Y-163496190D01*
X157183095Y-163496190D01*
X158183095Y-163972380D02*
X158183095Y-162972380D01*
X158754523Y-163972380D01*
X158754523Y-162972380D01*
X159230714Y-163972380D02*
X159230714Y-162972380D01*
X159611666Y-162972380D01*
X159706904Y-163020000D01*
X159754523Y-163067619D01*
X159802142Y-163162857D01*
X159802142Y-163305714D01*
X159754523Y-163400952D01*
X159706904Y-163448571D01*
X159611666Y-163496190D01*
X159230714Y-163496190D01*
X160754523Y-163972380D02*
X160183095Y-163972380D01*
X160468809Y-163972380D02*
X160468809Y-162972380D01*
X160373571Y-163115238D01*
X160278333Y-163210476D01*
X160183095Y-163258095D01*
%TO.C,NPN2*%
X166509285Y-117642380D02*
X166509285Y-116642380D01*
X167080714Y-117642380D01*
X167080714Y-116642380D01*
X167556904Y-117642380D02*
X167556904Y-116642380D01*
X167937857Y-116642380D01*
X168033095Y-116690000D01*
X168080714Y-116737619D01*
X168128333Y-116832857D01*
X168128333Y-116975714D01*
X168080714Y-117070952D01*
X168033095Y-117118571D01*
X167937857Y-117166190D01*
X167556904Y-117166190D01*
X168556904Y-117642380D02*
X168556904Y-116642380D01*
X169128333Y-117642380D01*
X169128333Y-116642380D01*
X169556904Y-116737619D02*
X169604523Y-116690000D01*
X169699761Y-116642380D01*
X169937857Y-116642380D01*
X170033095Y-116690000D01*
X170080714Y-116737619D01*
X170128333Y-116832857D01*
X170128333Y-116928095D01*
X170080714Y-117070952D01*
X169509285Y-117642380D01*
X170128333Y-117642380D01*
%TO.C,NPN1*%
X157159285Y-117642380D02*
X157159285Y-116642380D01*
X157730714Y-117642380D01*
X157730714Y-116642380D01*
X158206904Y-117642380D02*
X158206904Y-116642380D01*
X158587857Y-116642380D01*
X158683095Y-116690000D01*
X158730714Y-116737619D01*
X158778333Y-116832857D01*
X158778333Y-116975714D01*
X158730714Y-117070952D01*
X158683095Y-117118571D01*
X158587857Y-117166190D01*
X158206904Y-117166190D01*
X159206904Y-117642380D02*
X159206904Y-116642380D01*
X159778333Y-117642380D01*
X159778333Y-116642380D01*
X160778333Y-117642380D02*
X160206904Y-117642380D01*
X160492619Y-117642380D02*
X160492619Y-116642380D01*
X160397380Y-116785238D01*
X160302142Y-116880476D01*
X160206904Y-116928095D01*
%TO.C,J1*%
X170747380Y-85083333D02*
X171461666Y-85083333D01*
X171604523Y-85130952D01*
X171699761Y-85226190D01*
X171747380Y-85369047D01*
X171747380Y-85464285D01*
X171747380Y-84083333D02*
X171747380Y-84654761D01*
X171747380Y-84369047D02*
X170747380Y-84369047D01*
X170890238Y-84464285D01*
X170985476Y-84559523D01*
X171033095Y-84654761D01*
%TD*%
M02*
