M48
; DRILL file {KiCad 5.1.7-a382d34a8~87~ubuntu18.04.1} date Tue Oct 20 20:57:42 2020
; FORMAT={2:4/ absolute / inch / suppress trailing zeros}
; #@! TF.CreationDate,2020-10-20T20:57:42+01:00
; #@! TF.GenerationSoftware,Kicad,Pcbnew,5.1.7-a382d34a8~87~ubuntu18.04.1
; #@! TF.FileFunction,Plated,1,2,PTH
FMAT,2
INCH,LZ
T1C0.0315
T2C0.0394
T3C0.0787
%
G90
G05
T1
X065156Y-038504
X06614Y-038504
X062281Y-056547
X062281Y-059547
X065037Y-042177
X065037Y-045177
X066514Y-056594
X066514Y-059594
X065037Y-056594
X065037Y-059594
X063659Y-056594
X063659Y-059594
X066573Y-036535
X067573Y-036535
X061455Y-038024
X061455Y-041024
X067518Y-037945
X067518Y-040945
X063659Y-042177
X063659Y-045177
X065116Y-041024
X0661Y-041024
X062281Y-042177
X062281Y-045177
X066514Y-042177
X066514Y-045177
X062872Y-038504
X063856Y-038504
X061297Y-036535
X062297Y-036535
X062793Y-041024
X063778Y-041024
T2
X062577Y-047228
X062577Y-048228
X062577Y-049228
X062577Y-061287
X062577Y-062287
X062577Y-063287
X066258Y-047228
X066258Y-048228
X066258Y-049228
X062439Y-032866
X062439Y-033866
X063439Y-032766
X063439Y-033766
X064439Y-032866
X064439Y-033866
X065439Y-032766
X065439Y-033766
X066439Y-032866
X066439Y-033866
X06624Y-061303
X06624Y-062303
X06624Y-063303
T3
X06624Y-066929
X062577Y-052854
X066219Y-052854
X062402Y-066929
T0
M30
