%TF.GenerationSoftware,KiCad,Pcbnew,5.1.7-a382d34a8~87~ubuntu18.04.1*%
%TF.CreationDate,2020-10-20T20:58:06+01:00*%
%TF.ProjectId,transistor-matchers,7472616e-7369-4737-946f-722d6d617463,rev?*%
%TF.SameCoordinates,Original*%
%TF.FileFunction,Soldermask,Bot*%
%TF.FilePolarity,Negative*%
%FSLAX46Y46*%
G04 Gerber Fmt 4.6, Leading zero omitted, Abs format (unit mm)*
G04 Created by KiCad (PCBNEW 5.1.7-a382d34a8~87~ubuntu18.04.1) date 2020-10-20 20:58:06*
%MOMM*%
%LPD*%
G01*
G04 APERTURE LIST*
%ADD10O,1.700000X1.700000*%
%ADD11C,1.700000*%
%ADD12C,4.100000*%
%ADD13O,1.800000X1.800000*%
%ADD14C,1.800000*%
G04 APERTURE END LIST*
D10*
%TO.C,R8*%
X156095000Y-96580000D03*
D11*
X156095000Y-104200000D03*
%TD*%
D10*
%TO.C,R7*%
X171495000Y-96380000D03*
D11*
X171495000Y-104000000D03*
%TD*%
D10*
%TO.C,D4*%
X158235000Y-92800000D03*
G36*
G01*
X154845000Y-93600000D02*
X154845000Y-92000000D01*
G75*
G02*
X154895000Y-91950000I50000J0D01*
G01*
X156495000Y-91950000D01*
G75*
G02*
X156545000Y-92000000I0J-50000D01*
G01*
X156545000Y-93600000D01*
G75*
G02*
X156495000Y-93650000I-50000J0D01*
G01*
X154895000Y-93650000D01*
G75*
G02*
X154845000Y-93600000I0J50000D01*
G01*
G37*
%TD*%
%TO.C,D3*%
X169095000Y-92800000D03*
G36*
G01*
X172485000Y-92000000D02*
X172485000Y-93600000D01*
G75*
G02*
X172435000Y-93650000I-50000J0D01*
G01*
X170835000Y-93650000D01*
G75*
G02*
X170785000Y-93600000I0J50000D01*
G01*
X170785000Y-92000000D01*
G75*
G02*
X170835000Y-91950000I50000J0D01*
G01*
X172435000Y-91950000D01*
G75*
G02*
X172485000Y-92000000I0J-50000D01*
G01*
G37*
%TD*%
D11*
%TO.C,C4*%
X161995000Y-104200000D03*
X159495000Y-104200000D03*
%TD*%
%TO.C,C3*%
X159695000Y-97800000D03*
G36*
G01*
X163045000Y-97000000D02*
X163045000Y-98600000D01*
G75*
G02*
X162995000Y-98650000I-50000J0D01*
G01*
X161395000Y-98650000D01*
G75*
G02*
X161345000Y-98600000I0J50000D01*
G01*
X161345000Y-97000000D01*
G75*
G02*
X161395000Y-96950000I50000J0D01*
G01*
X162995000Y-96950000D01*
G75*
G02*
X163045000Y-97000000I0J-50000D01*
G01*
G37*
%TD*%
%TO.C,C2*%
X165395000Y-104200000D03*
X167895000Y-104200000D03*
%TD*%
%TO.C,C1*%
X165495000Y-97800000D03*
G36*
G01*
X168845000Y-97000000D02*
X168845000Y-98600000D01*
G75*
G02*
X168795000Y-98650000I-50000J0D01*
G01*
X167195000Y-98650000D01*
G75*
G02*
X167145000Y-98600000I0J50000D01*
G01*
X167145000Y-97000000D01*
G75*
G02*
X167195000Y-96950000I50000J0D01*
G01*
X168795000Y-96950000D01*
G75*
G02*
X168845000Y-97000000I0J-50000D01*
G01*
G37*
%TD*%
D12*
%TO.C,PNP-TEST2*%
X168250000Y-170000000D03*
%TD*%
%TO.C,PNP-TEST1*%
X158500000Y-170000000D03*
%TD*%
%TO.C,NPN-TEST2*%
X168195000Y-134250000D03*
%TD*%
%TO.C,NPN-TEST1*%
X158945000Y-134250000D03*
%TD*%
D10*
%TO.C,R6*%
X161695000Y-151370000D03*
D11*
X161695000Y-143750000D03*
%TD*%
D10*
%TO.C,R5*%
X165195000Y-151370000D03*
D11*
X165195000Y-143750000D03*
%TD*%
D10*
%TO.C,R4*%
X158195000Y-143630000D03*
D11*
X158195000Y-151250000D03*
%TD*%
D10*
%TO.C,R3*%
X168945000Y-114750000D03*
D11*
X168945000Y-107130000D03*
%TD*%
D10*
%TO.C,R2*%
X165195000Y-114750000D03*
D11*
X165195000Y-107130000D03*
%TD*%
D10*
%TO.C,R1*%
X161695000Y-107130000D03*
D11*
X161695000Y-114750000D03*
%TD*%
D13*
%TO.C,PNP2*%
X168250000Y-155710000D03*
X168250000Y-158250000D03*
G36*
G01*
X169150000Y-159940000D02*
X169150000Y-161640000D01*
G75*
G02*
X169100000Y-161690000I-50000J0D01*
G01*
X167400000Y-161690000D01*
G75*
G02*
X167350000Y-161640000I0J50000D01*
G01*
X167350000Y-159940000D01*
G75*
G02*
X167400000Y-159890000I50000J0D01*
G01*
X169100000Y-159890000D01*
G75*
G02*
X169150000Y-159940000I0J-50000D01*
G01*
G37*
%TD*%
%TO.C,PNP1*%
X158945000Y-155670000D03*
X158945000Y-158210000D03*
G36*
G01*
X159845000Y-159900000D02*
X159845000Y-161600000D01*
G75*
G02*
X159795000Y-161650000I-50000J0D01*
G01*
X158095000Y-161650000D01*
G75*
G02*
X158045000Y-161600000I0J50000D01*
G01*
X158045000Y-159900000D01*
G75*
G02*
X158095000Y-159850000I50000J0D01*
G01*
X159795000Y-159850000D01*
G75*
G02*
X159845000Y-159900000I0J-50000D01*
G01*
G37*
%TD*%
%TO.C,NPN2*%
X168295000Y-125040000D03*
X168295000Y-122500000D03*
G36*
G01*
X167395000Y-120810000D02*
X167395000Y-119110000D01*
G75*
G02*
X167445000Y-119060000I50000J0D01*
G01*
X169145000Y-119060000D01*
G75*
G02*
X169195000Y-119110000I0J-50000D01*
G01*
X169195000Y-120810000D01*
G75*
G02*
X169145000Y-120860000I-50000J0D01*
G01*
X167445000Y-120860000D01*
G75*
G02*
X167395000Y-120810000I0J50000D01*
G01*
G37*
%TD*%
%TO.C,NPN1*%
X158945000Y-125040000D03*
X158945000Y-122500000D03*
G36*
G01*
X158045000Y-120810000D02*
X158045000Y-119110000D01*
G75*
G02*
X158095000Y-119060000I50000J0D01*
G01*
X159795000Y-119060000D01*
G75*
G02*
X159845000Y-119110000I0J-50000D01*
G01*
X159845000Y-120810000D01*
G75*
G02*
X159795000Y-120860000I-50000J0D01*
G01*
X158095000Y-120860000D01*
G75*
G02*
X158045000Y-120810000I0J50000D01*
G01*
G37*
%TD*%
D14*
%TO.C,J1*%
X158595000Y-86020000D03*
X158595000Y-83480000D03*
X161135000Y-85766000D03*
X161135000Y-83226000D03*
X163675000Y-86020000D03*
X163675000Y-83480000D03*
X166215000Y-85766000D03*
X166215000Y-83226000D03*
X168755000Y-86020000D03*
X168755000Y-83480000D03*
%TD*%
D10*
%TO.C,D2*%
X168945000Y-143750000D03*
G36*
G01*
X169745000Y-152220000D02*
X168145000Y-152220000D01*
G75*
G02*
X168095000Y-152170000I0J50000D01*
G01*
X168095000Y-150570000D01*
G75*
G02*
X168145000Y-150520000I50000J0D01*
G01*
X169745000Y-150520000D01*
G75*
G02*
X169795000Y-150570000I0J-50000D01*
G01*
X169795000Y-152170000D01*
G75*
G02*
X169745000Y-152220000I-50000J0D01*
G01*
G37*
%TD*%
%TO.C,D1*%
X158195000Y-107130000D03*
G36*
G01*
X158995000Y-115600000D02*
X157395000Y-115600000D01*
G75*
G02*
X157345000Y-115550000I0J50000D01*
G01*
X157345000Y-113950000D01*
G75*
G02*
X157395000Y-113900000I50000J0D01*
G01*
X158995000Y-113900000D01*
G75*
G02*
X159045000Y-113950000I0J-50000D01*
G01*
X159045000Y-115550000D01*
G75*
G02*
X158995000Y-115600000I-50000J0D01*
G01*
G37*
%TD*%
M02*
